<svg width="569" height="80" viewBox="0 0 569 80" fill="none" xmlns="http://www.w3.org/2000/svg">
<g clip-path="url(#clip0_293_33)">
<rect width="569" height="80" fill="white"/>
<path d="M19.1 76.2V67.2H10V30H20.1V66.2H46.3V30H56.5V67.2H47.3V76.2H19.1ZM77.6938 76.2V67.2H68.5938V11.9H78.6938V30H105.894V39.1H115.094V67.2H105.894V76.2H77.6938ZM78.6938 66.2H104.894V40H78.6938V66.2ZM134.334 76.2V67.2H125.234V39.1H134.334V30H162.534V39.1H171.734V49H161.534V40H135.334V48H153.534V58.1H135.334V66.2H161.534V57H171.734V67.1H162.534V76.2H134.334ZM183.828 76.2V39.1H192.928V30H221.128V39.1H230.328V49H220.128V40H193.928V76.2H183.828ZM250.545 76.2V67.2H241.445V57.1H251.545V66.2H277.745V49H250.545V40H241.445V21H250.545V11.9H278.745V21H287.945V31H277.745V22H251.545V39.1H278.745V48H287.945V67.2H278.745V76.2H250.545ZM300.039 76.2V21H309.139V11.9H319.139V22H310.139V39.1H318.139V30H327.339V21H336.339V11.9H346.539V22H337.339V31H328.339V40H319.139V48H328.339V57.1H337.339V66.2H346.539V76.2H336.339V67.2H327.339V58.1H318.139V49H310.139V76.2H300.039ZM358.633 76.2V66.2H367.733V22H358.633V11.9H386.933V22H377.733V66.2H386.933V76.2H358.633ZM408.163 76.2V67.2H399.063V11.9H409.163V66.2H435.363V57.1H445.563V67.2H436.363V76.2H408.163ZM466.756 76.2V67.2H457.656V11.9H467.756V66.2H493.956V57.1H504.156V67.2H494.956V76.2H466.756ZM525.35 76.2V67.2H516.25V57.1H526.35V66.2H552.55V49H525.35V40H516.25V21H525.35V11.9H553.55V21H562.75V31H552.55V22H526.35V39.1H553.55V48H562.75V67.2H553.55V76.2H525.35Z" fill="#B7B7B7"/>
</g>
<defs>
<clipPath id="clip0_293_33">
<rect width="569" height="80" fill="white"/>
</clipPath>
</defs>
</svg>
